<svg id="Layer_1" data-name="Layer 1" xmlns="http://www.w3.org/2000/svg" viewBox="0 0 1024 1024"><defs><style>.cls-1{fill:#cc5702;}.cls-2{fill:#436600;}.cls-3{fill:#79a840;}.cls-4{fill:#6c9830;}.cls-5{fill:#517710;}.cls-6{fill:#5e8720;}.cls-7{fill:#fa0;}.cls-8{fill:#ff8000;}.cls-9{fill:#ffd500;}.cls-10{fill:#ffbf00;}.cls-11{fill:#9f4334;}.cls-12{fill:#fff;}</style></defs><path class="cls-1" d="M51.83,750c-.08-10.18-1-35.27,7.66-65.19C98.39,550.69,299.21,341.93,482.7,392.63c4.45,1.24,39.51,27,45.23,32.34,37,34.2,97.53,104.58,99.18,111.56,34.16,102-20.25,211-115.62,306.48C445,909.54,362.6,970.93,269,967.34,226,965.62,53.57,793,51.83,750Z"/><path class="cls-2" d="M726.41,344.57c44-13.4,158.71-8.3,227.55,27.43-47.81,1.92-142.1,6.88-190.59,27.42C748.73,392.4,726.41,344.57,726.41,344.57Z"/><path class="cls-3" d="M801.29,249.82c38-18.93,131.28-38.32,184.17-13.46-53.54,3.85-146.54,39.86-207.71,107.29S801.29,249.82,801.29,249.82Z"/><path class="cls-2" d="M671.6,294.83c23.85-59.1,67.75-168.28,156.71-215.78,6.73,20.8,11.3,85.31-37.53,169.18S671.6,294.83,671.6,294.83Z"/><path class="cls-4" d="M679.54,297.65c13.38-44,8.28-158.89-27.41-227.78-1.93,47.84-6.87,142.24-27.41,190.76C631.74,275.29,679.54,297.65,679.54,297.65Z"/><path class="cls-3" d="M686.47,294.72c24.78-36.33,70.57-194.5,62.22-250.17-13.59,34-58.52,173.93-97.37,211.13C657.25,273.11,686.47,294.72,686.47,294.72Z"/><path class="cls-5" d="M672.51,308.47c15.38-31.31,60.64-103.9,175-100.45-8.65,32.2-48.8,110.67-95.66,134S672.51,308.47,672.51,308.47Z"/><path class="cls-3" d="M653.41,323.81c10.17-34.47-7.67-154.42-35-202.25-2.58,44.63-9,141.6-32.54,175.42C587.12,308.48,653.41,323.81,653.41,323.81Z"/><path class="cls-6" d="M700.28,370.73c34.41-10.2,154.23,7.65,202,35.07-44.59,2.57-141.48,8.95-175.26,32.56C634.25,446.26,700.28,370.73,700.28,370.73Z"/><path class="cls-6" d="M734.91,316.88c40.19-17.83,203.84-34.33,257-16.06-35.88,7.26-181.46,26.21-225,57.73C750.88,349.54,734.91,316.88,734.91,316.88Z"/><path class="cls-6" d="M578.57,344.58c20-20.8,82.47-99.91,96.49-131.8,10.21,19.14,21.1,109.18,10.87,152.51S578.57,344.58,578.57,344.58Z"/><path class="cls-4" d="M654.21,346.3c26.58-14.22,129.84-57.58,196.13,3.64-22.29,7-115.92,37.08-166.92,88.13S654.21,346.3,654.21,346.3Z"/><path class="cls-4" d="M606.19,367.84c14.67-30,12.75-142.89-37.6-206.06,9.54,45.29,20.6,127.4-13,173.76C559,347.42,606.19,367.84,606.19,367.84Z"/><path class="cls-3" d="M554,388.89c8.94-33.2,7.66-105.93-37-144.22,10.84,33.82,11.86,86.38-5.22,117.52C517,373.55,554,388.89,554,388.89Z"/><path class="cls-4" d="M635.25,470.26c33.16-8.95,105.82-7.67,144.07,37-33.79-10.85-86.32-11.88-117.41,5.22C650.57,507.26,635.25,470.26,635.25,470.26Z"/><path class="cls-5" d="M623.78,444.1c30-14.7,142.77-12.75,205.89,37.63-45.27-9.55-127.28-20.62-173.59,13C586,500.57,623.78,444.1,623.78,444.1Z"/><path class="cls-2" d="M580.72,382.5C609.23,361.23,643.83,313,712,348c4.45,17.24-13.12,65.59-33.78,88.7C629.09,491.73,580.72,382.5,580.72,382.5Z"/><path class="cls-3" d="M563.83,446.61c25.11-13.64,108.94-54.17,169.88-2.88-33.48,11.77-87.81,33.32-120.82,64.94C586.88,505.23,563.83,446.61,563.83,446.61Z"/><path class="cls-5" d="M527.83,407.37c11.45-33.18,48.43-130.16,38.88-169.07,28.68,46.55,60.92,92.88,54.35,141.18S527.83,407.37,527.83,407.37Z"/><path class="cls-5" d="M538.65,429.71c10.21-30.63,11.48-100.82-45.87-142.92,10.83,28.71,16,74.65-6.39,108.45C497.24,407.39,538.65,429.71,538.65,429.71Z"/><path class="cls-5" d="M593.93,497.11c30.58-10.2,100.73-11.49,142.77,45.95-28.69-10.86-74.57-16-108.34,6.35C616.25,538.59,593.93,497.11,593.93,497.11Z"/><path class="cls-2" d="M512.53,413.77c17.21-24.89,59.28-60.61,90.19-68,12.43,23.94,29,89,9.88,119.65C590.28,477.55,512.53,413.77,512.53,413.77Z"/><path class="cls-3" d="M491.1,425c10.15-16,31.39-55,46.13-65.42C550,381.46,573.14,443.63,556,479,541.16,472.35,491.1,425,491.1,425Z"/><path class="cls-2" d="M504.45,441.14c9.38-15.51,35.08-62.69-22.7-122.23,9.87,25.78,17.87,65.54-4.29,91.27C482,419.05,504.45,441.14,504.45,441.14Z"/><path class="cls-4" d="M583.27,498.89c17.21-5.74,68.84-20.42,114.08,49.14-23-15.32-59.9-31.92-89.87-15.95C599.84,525.69,583.27,498.89,583.27,498.89Z"/><path class="cls-5" d="M524.63,456.5c35.69-19.13,82.87-34.46,135.12,5.1-18.46,21.06-57.35,30.62-76.48,53.59C568.62,505.63,524.63,456.5,524.63,456.5Z"/><path class="cls-7" d="M446,405.51c5.62-.31,41.74-10.79,42.11-13.59l-.67-.66c-9-5.73-36.77-18.95-52.89-18.06-25.28,1.41-45.49,19-43.59,23.36,2.13,5,42,9.68,55,8.95Z"/><path class="cls-8" d="M90.64,643.09c4.56-6.38,57.25-104.62,2.11-45.13-24.39,26.3-31.58,46.73-31.58,46.73-.81,2,1.71,25.19,3.69,26,2.38-1.88,21.32-21.36,25.78-27.59Z"/><path class="cls-7" d="M364.81,408.83c8.42-2.15,47.4-22.48,49.08-25.6-.13-.16-.29-.38-.41-.55-9.83-4.7-40.68-6.56-59.7-1-24.59,7.15-37.17,23.61-40,30.85,2.48,3.46,43.18-1.65,51-3.66Z"/><path class="cls-8" d="M590.35,764.08a182.1,182.1,0,0,0,24.95-57.34c1.79-5,7.22-22.9,2.3-21-5.06,3.93-36.15,37.66-40.07,44.6-6.1,10.8-18.14,51-15.1,53.14,6.43-2.11,24.57-14.54,27.92-19.39Z"/><path class="cls-7" d="M209.37,505.17c8.26-5.95,51.11-59.29,48.35-63.14-9.61-1.88-45.67,13.88-69.38,35.34-22.84,20.63-33.65,46.91-31,51.37,8.58,2.15,44.72-18.32,52-23.57Z"/><path class="cls-8" d="M470.16,897.5c6-5,53.92-57,48.14-62.37-.38.1-.91.27-1.31.37S466.72,863,456.32,872.16c-8,7-27,36.46-27.05,40.6,0,0,10.57,9.37,40.89-15.26Z"/><path class="cls-8" d="M66.66,735.35c3.12-7.22,9.61-64.72,5.36-69.86-5.14-1.67-24.06,5.36-29.63,27.86-5.87,23.8,4.34,59.44,6.87,64.29,2.25,4.29,17.27-22,17.4-22.29Z"/><path class="cls-8" d="M648.64,611.14c2.23-29.85-7.17-59-7.17-59-4-15.12-7.15-20.76-8.24-21.62-.08.08-.21.23-.33.34s-4.92,42.16-4.8,48.77c.14,7.36,3.36,47.57,6.68,50,4.18-2.29,13.34-14.17,13.86-18.51Z"/><path class="cls-8" d="M630.09,583.46c2.25-15.59-9.31-56.68-14.77-58-3.6,1.46-20.24,24.94-21.5,34.42-2.15,16.23,3,54.31,9.15,58.16,6.55,4.11,24.11-13.77,27.12-34.59Z"/><path class="cls-7" d="M588.67,555.9c5.17-10.86-1.07-53.49-8.46-57.76-7.06-1.52-34.47,7.27-39,16.5-6.14,12.43-4.52,46.57,2.69,57.07,7.41,10.79,37.14.29,44.81-15.81Z"/><path class="cls-7" d="M535.13,508.87c7.59-6.16,12.65-43.51,4.52-49.75-9.46-4.52-42.62-7.48-52.51-.42s-16.18,32-11.38,45.89c6,17.56,50,11.93,59.37,4.28Z"/><path class="cls-7" d="M482.16,452.94c6.22-1.83,30.48-26.79,24.1-32.47-9.61-5.63-44-14.21-57.35-10.56-16.17,4.44-30.11,24.18-27,33.72,3.05,9.37,46.19,13.44,60.28,9.31Z"/><path class="cls-8" d="M636.15,666.88c6.84-18.64-1.44-58-8.06-58.44-4.65,2-28.65,26.55-33.36,40.88-3.39,10.41-5.32,55.23,1,58.11,6,2.75,31.94-17.29,40.45-40.55Z"/><path class="cls-7" d="M589,645.6c8.55-14.21,3.91-61.94-6.53-67.17-12.55-2.12-44.47,14-48.17,21-8.92,16.82-5.81,58.47,1.07,68.08,8.19,11.43,43.59-5.12,53.63-21.86Z"/><path class="cls-7" d="M525.33,595.65c9.76-9.48,10.33-60.12-2.16-69.07-17-7.46-55-2.62-61.34,4.07-11.95,12.59-12,50.39-5.25,66.07,8.87,20.66,57.51,9.91,68.75-1.07Z"/><path class="cls-7" d="M452.19,525c11.3-6.25,22.46-51.51,11.75-60.68-16.52-9.1-54.68-9.14-63.55-3.64-15.81,9.75-23.72,41.43-20.13,55.38,5.21,20.21,61.86,14.51,71.93,8.94Z"/><path class="cls-7" d="M392.57,455.61c10.24-3.55,37.72-37.38,30.64-44.37-13.56-7.91-48.36-8.81-58.73-4.55-22.56,9.3-37.8,34.54-36.07,43.52,2.16,11.06,51.85,9.64,64.16,5.4Z"/><path class="cls-8" d="M576.1,736.44c12.26-16.15,14.34-61.74,3-65.94-13.41-.7-50.21,18.17-56.11,27.18-10,15.17-11.44,59.32-5.84,67.21,7.08,10,45.21-10.4,58.91-28.45Z"/><path class="cls-7" d="M513.41,694.7c12.45-12,14-66.7-1.24-76.38-18.08-6.45-60.41,1.7-68.59,11C432.42,642.11,432.32,686.78,439,702c9.49,21.76,63.19,3.52,74.44-7.3Z"/><path class="cls-7" d="M432.35,623.49c13.36-9.24,17.86-67.22,2.36-79.64-19.2-10-62.11-7.89-72.54,1.12-13.32,11.52-18.35,53.13-11.58,71.6,8.67,23.61,69.14,15.67,81.76,6.92Z"/><path class="cls-7" d="M352.17,538.8c13.22-7.18,29.93-58.5,18.79-68.75-17.63-9.85-55.81-6.14-66.34,1.44-17.12,12.36-30.32,50.67-25.13,64.56s58.79,10.29,72.68,2.75Z"/><path class="cls-7" d="M297.5,467c11.64-5.72,43-46.79,37.63-52.74-11.85-5.8-44.69-5.19-56.66,2.21C251.89,433,236,468.08,238.83,474c3,6.29,45.83-.72,58.67-7Z"/><path class="cls-8" d="M542.47,817.81c18.73-19.78,28.75-54.92,18.91-56.49-12.38,1.78-53.58,24-61.19,33.08-12.07,14.31-25.16,55.32-16.77,59.36,7.47,3.66,37.47-13.16,59.05-36Z"/><path class="cls-8" d="M490.81,792.84c15.58-13.51,22.9-65,6.76-73.54-18.92-4.82-64.35,7.07-73.46,17.09-11.11,12.21-19.79,57.41-8.24,72.7,9.8,13,54.89,1.14,74.94-16.25Z"/><path class="cls-7" d="M412.54,731.48c15.61-11.41,20-71.65,2-84.73-21.19-9.78-66.87-7.14-80.14,4.63-5.75,5.1-20.32,42.24-8.78,74.25,12.66,35.06,76.39,13.52,86.91,5.85Z"/><path class="cls-7" d="M322.62,644.58c14.53-9.45,24-72.1,9-85-19.52-10.42-60.93-5.76-73.25,5.13-8.11,7.21-26.16,47.33-16.72,74.59,8.82,25.44,65.59,15.23,80.94,5.23Z"/><path class="cls-7" d="M249.34,559.31c13-8.67,34.6-64.88,25.28-74-15.17-7.67-48.91,2.33-60.65,12.7-14.87,13.15-35,50.75-30.14,67.52,4.2,14.61,49.12,4.7,65.51-6.19Z"/><path class="cls-8" d="M453.7,877.5c17.78-13.15,30.22-56.23,17.53-60.69-12.44-.7-61.13,8.85-73.54,20.06-10.49,9.51-19.12,49-12.64,57.91s50-3.53,68.65-17.28Z"/><path class="cls-8" d="M387,833.1c15.25-10,22.74-67.26,6-77.19-12.68-3.84-65.79-5-80.24,7.94-10.06,9-13.28,51.46-5.22,68.8,9.4,20.35,66.22,9.15,79.44.45Z"/><path class="cls-7" d="M300.8,757.38c15.78-10,17.11-76.9,1.78-88.43-14-6-61.67-9.73-76.83,4.72-10.83,10.34-14.33,54-5.89,74.19,9.58,23,68.43,17.42,80.94,9.52Z"/><path class="cls-7" d="M215.5,667.3c14.91-10.53,22.12-76.55,12.65-84.5-12.57-5.11-50.1-2.65-63.9,12.31C152,608.46,143,652.74,149.52,668c6.1,14.32,53.8,7.92,66-.72Z"/><path class="cls-7" d="M157.37,590.94c9.42-8.07,34.95-67.64,28.93-73.28-8.37-1.62-37.79,2.63-52.53,19.64-18.94,21.89-27.64,62.92-24.45,69.32s38-7.11,48.05-15.68Z"/><path class="cls-8" d="M400.24,939.85c22.28-12,38.1-36.79,27.78-39.06-12.17.08-56.47,11.43-67.27,18-8.58,5.25-24.4,32-21.41,36.19,2.82,4,35-1.29,60.9-15.17Z"/><path class="cls-8" d="M351.65,916.4c16.39-7.94,27.33-49.54,11.29-58.46-16.54-5.27-61.32-2.68-74.06,6.09-8.63,6-14.16,38.67-8.57,50.76,6.37,13.84,57.28,8.39,71.34,1.61Z"/><path class="cls-8" d="M278.08,858.7c15.1-7.9,18.13-61.4.19-74.76-18.6-9.23-60.81-10.91-74.11-.21-7.74,6.23-8.36,41.47-1.09,60.84,10.55,28.09,69.7,16.89,75,14.13Z"/><path class="cls-7" d="M193.55,777.05c11.95-8,15-69,.2-81.95-19.21-10.6-52-3.35-59.31,4.55-11.53,12.45-10.29,50.18-5.81,65.76,8.69,30.11,62.26,13.43,64.92,11.64Z"/><path class="cls-7" d="M124.65,696.86c9.33-9.1,19.6-68.8,11-77.54-11.51-5.64-35.61,4.74-45.21,19.51-8.83,13.56-15.18,53.24-10.64,66.34,4.18,12,37.92-1.51,44.89-8.31Z"/><path class="cls-8" d="M311.26,972.64c22.42-4.27,26.78-34.56,15.68-39.51-12.94-3.32-53.71-3.37-66.81.88-6.4,2.07-20.38,21.78-17,26.25,3.49,4.71,46.44,16.49,68.16,12.38Z"/><path class="cls-8" d="M251.26,930c16.55-4.25,20.68-41.19,5.71-51.33-19.25-8.93-55.68-9.09-63.47-5-11.14,5.77-8.38,34.12-5.88,41,6.29,17.27,57,17.11,63.64,15.42Z"/><path class="cls-8" d="M182,869.11c12.51-6.09,8.16-56.5-5.92-68.26-16.79-9.72-44.47-8.7-53.64-.86-6.52,5.6-4.23,30.86.29,46.52,4.19,14.57,8.21,17.08,13.81,19.21,18.23,6.95,38.75,6.65,45.46,3.39Z"/><path class="cls-8" d="M113.41,796.72c7.34-7.94,6.18-63.23-3.93-73-12.67-7.19-31.44.75-37.36,12.06-4.46,8.51-3.51,35.53,2,55.59,3.38,12.44,5.41,13.34,10.84,14,6.13.84,22.82-2.61,28.49-8.74Z"/><path class="cls-9" d="M446.11,393c3.43-.13,25.31-6.19,25.5-7.9l-.41-.41c-5.55-3.56-22.54-11.84-32.31-11.42-15.4.62-27.53,11.16-26.34,13.85,1.34,3,25.64,6.24,33.56,5.88Z"/><path class="cls-7" d="M91.49,625.92c2.71-3.85,33.94-63.14.89-27.43-14.62,15.79-18.8,28.18-18.8,28.18-.49,1.2,1.21,15.32,2.44,15.82,1.43-1.12,12.77-12.83,15.47-16.57Z"/><path class="cls-9" d="M366,395.28c5.09-1.24,28.64-13.28,29.65-15.17l-.26-.34c-6-2.93-24.81-4.32-36.33-1.12-14.9,4.15-22.41,14.05-24,18.43,1.53,2.13,26.23-.64,31-1.8Z"/><path class="cls-7" d="M601,752.19a107.71,107.71,0,0,0,14.69-34.67c1.06-3,4.21-13.87,1.22-12.75-3,2.34-21.66,22.59-24,26.78-3.61,6.53-10.6,30.87-8.72,32.21,3.87-1.24,14.79-8.64,16.81-11.57Z"/><path class="cls-10" d="M209.11,487.05c5-3.55,30.61-35.64,28.89-38-5.88-1.2-27.69,8.08-41.93,21-13.72,12.35-20.07,28.24-18.42,31,5.25,1.39,27.06-10.76,31.46-13.9Z"/><path class="cls-7" d="M481.75,887.54c3.62-3,32.31-34.24,28.75-37.53-.23.07-.57.14-.79.21S479.37,866.51,473.1,872c-4.78,4.21-16.14,22-16.11,24.46,0,0,6.51,5.79,24.76-8.93Z"/><path class="cls-7" d="M65.56,716.48c1.87-4.36,5.32-39.28,2.7-42.44-3.16-1.07-14.6,3.07-17.78,16.69-3.38,14.44,3.11,36.19,4.69,39.18,1.39,2.62,10.35-13.25,10.39-13.43Z"/><path class="cls-7" d="M651.25,596.55c1.14-18.16-4.82-35.91-4.82-35.91-2.59-9.25-4.52-12.71-5.17-13.25l-.21.21c0,.17-2.65,25.59-2.53,29.62.16,4.49,2.44,29,4.49,30.45,2.51-1.35,8-8.5,8.24-11.12Z"/><path class="cls-7" d="M630.3,576.64c1.22-9.46-6.14-34.55-9.47-35.39-2.2.85-12.1,15-12.78,20.74-1.19,9.85,2.28,33,6,35.45,4,2.56,14.54-8.15,16.21-20.8Z"/><path class="cls-10" d="M585.64,544.44c3.05-6.53-1.1-32.51-5.61-35.18-4.32-1-20.92,4.14-23.61,9.7-3.65,7.51-2.38,28.29,2.08,34.76,4.62,6.6,22.61.47,27.14-9.28Z"/><path class="cls-9" d="M530.47,494c4.56-3.66,7.35-26.35,2.33-30.23-5.77-2.81-26-4.9-31.93-.71s-9.59,19.36-6.56,27.84c3.83,10.73,30.5,7.66,36.16,3.1Z"/><path class="cls-9" d="M478.61,437.72c3.76-1.06,18.31-16,14.38-19.53-5.88-3.51-26.9-9-35-6.92-9.81,2.57-18.13,14.46-16.16,20.29s28.22,8.57,36.74,6.16Z"/><path class="cls-7" d="M636.38,662.45c4-11.31-1.36-35.3-5.39-35.63-2.83,1.2-17.2,15.9-20,24.6-2,6.29-2.78,33.52,1.07,35.34,3.66,1.72,19.28-10.26,24.27-24.31Z"/><path class="cls-10" d="M585.61,634.43c5.07-8.57,1.87-37.63-4.54-40.91-7.64-1.38-26.93,8.11-29.12,12.35-5.29,10.16-3.06,35.51,1.2,41.4,5.1,7,26.47-2.73,32.46-12.84Z"/><path class="cls-10" d="M518.46,579c5.87-5.7,5.79-36.49-1.89-42-10.4-4.67-33.47-2.06-37.28,2-7.15,7.54-6.87,30.55-2.65,40.15,5.58,12.61,35.09,6.51,41.82-.09Z"/><path class="cls-9" d="M445.69,506.41c6.84-3.71,13.26-31.15,6.67-36.8-10.14-5.69-33.35-6-38.69-2.75-9.55,5.8-14.09,25-11.8,33.51,3.34,12.33,37.76,9.34,43.82,6Z"/><path class="cls-9" d="M388.8,438.13c6.18-2.09,22.63-22.44,18.28-26.74-8.32-4.95-29.49-5.78-35.77-3.26-13.64,5.45-22.72,20.69-21.58,26.17,1.39,6.73,31.62,6.29,39.07,3.83Z"/><path class="cls-7" d="M574.32,727.55c7.33-9.71,8.21-37.42,1.29-40.09-8.15-.53-30.37,10.65-33.9,16.07-5.92,9.14-6.48,36-3,40.83,4.39,6.11,27.4-5.94,35.59-16.81Z"/><path class="cls-10" d="M506.71,678.86c7.47-7.22,8-40.46-1.39-46.46-11-4.08-36.73.52-41.62,6.13-6.68,7.66-6.38,34.83-2.2,44.16,5.94,13.29,38.47,2.65,45.21-3.83Z"/><path class="cls-9" d="M423.48,602.9c8.06-5.49,10.3-40.75.77-48.44-11.77-6.22-37.86-5.3-44.12.08-8,6.91-10.71,32.18-6.45,43.49,5.46,14.41,42.17,10.08,49.8,4.87Z"/><path class="cls-9" d="M345.64,518.24c8-4.26,17.74-35.33,10.87-41.66-10.8-6.12-34-4.19-40.37.33-10.29,7.39-18,30.57-14.73,39.05s35.83,6.77,44.23,2.28Z"/><path class="cls-9" d="M294.52,448.47c7.06-3.37,25.77-28.13,22.46-31.78-7.24-3.65-27.21-3.52-34.42.88-16,9.84-25.43,31-23.67,34.67,1.89,3.86,27.88-.05,35.63-3.77Z"/><path class="cls-7" d="M543.9,812.33c11.21-11.87,17-33.17,11-34.19-7.53,1-32.39,14.15-37,19.6-7.24,8.59-14.84,33.45-9.7,36C512.85,836,531,826,543.9,812.33Z"/><path class="cls-7" d="M486.12,779.55c9.37-8.08,13.39-39.31,3.52-44.67-11.54-3.08-39.08,3.76-44.56,9.8-6.65,7.32-11.56,34.73-4.39,44.14,6.06,8,33.39,1.14,45.43-9.27Z"/><path class="cls-10" d="M403.6,711.42c9.41-6.8,11.58-43.41.54-51.51-13-6.14-40.75-4.92-48.71,2.13-3.47,3.07-12,25.54-4.73,45.12,8,21.43,46.57,8.83,52.9,4.26Z"/><path class="cls-9" d="M314.06,622.22c8.78-5.65,14-43.68,4.8-51.62-12-6.49-37.13-4-44.52,2.51-4.87,4.33-15.53,28.57-9.56,45.24,5.57,15.55,40,9.82,49.28,3.87Z"/><path class="cls-9" d="M244.5,538.54c7.85-5.16,20.51-39.18,14.78-44.81-9.3-4.79-29.73,1-36.79,7.22-8.93,7.86-20.88,30.57-17.8,40.82,2.72,8.92,29.93,3.25,39.81-3.23Z"/><path class="cls-7" d="M452.78,867.3c10.71-7.83,17.91-34,10.16-36.77-7.59-.53-37.11,4.87-44.55,11.61-6.33,5.68-11.23,29.65-7.22,35.1s30.37-1.71,41.61-9.94Z"/><path class="cls-7" d="M380.77,815.51c9.19-6,13.27-40.73,3-46.92-7.74-2.43-40.05-3.6-48.73,4.16-6,5.41-7.65,31.2-2.63,41.81,5.91,12.46,40.38,6.11,48.34,1Z"/><path class="cls-10" d="M292.12,734.62c9.54-6,9.79-46.65.35-53.78-8.55-3.77-37.6-6.44-46.68,2.23-6.52,6.2-8.26,32.75-3,45.07,6.05,14.09,41.8,11.17,49.34,6.48Z"/><path class="cls-10" d="M209.26,644.48c9-6.29,12.83-46.38,7-51.31-7.68-3.21-30.51-2-38.76,7-7.38,8-12.45,34.87-8.37,44.23,3.83,8.73,32.81,5.24,40.12.11Z"/><path class="cls-10" d="M154.86,570.11c5.69-4.83,20.71-40.86,17-44.34-5.11-1.07-23,1.28-31.78,11.51-11.32,13.16-16.28,38.05-14.3,42s23.09-4,29.09-9.13Z"/><path class="cls-7" d="M403.36,934c13.47-7.09,22.89-22.07,16.58-23.54-7.39-.05-34.24,6.5-40.76,10.4-5.18,3.14-14.57,19.25-12.71,21.85,1.74,2.45,21.28-.49,36.89-8.71Z"/><path class="cls-7" d="M348.75,902.81c9.9-4.69,16.2-29.91,6.36-35.47-10.09-3.34-37.33-2.11-45,3.1-5.21,3.53-8.28,23.4-4.81,30.81,4,8.46,34.92,5.57,43.44,1.56Z"/><path class="cls-7" d="M271,838.61c9.11-4.66,10.51-37.22-.52-45.47-11.38-5.76-37.09-7.15-45.08-.73-4.63,3.72-4.73,25.17-.15,37,6.65,17.17,42.54,10.86,45.75,9.22Z"/><path class="cls-10" d="M186.71,754.56c7.21-4.77,8.53-41.88-.56-49.86-11.76-6.59-31.64-2.47-36,2.29-6.92,7.47-5.86,30.43-3,40,5.53,18.37,38,8.69,39.58,7.61Z"/><path class="cls-10" d="M121.14,675.78c5.6-5.47,11.35-41.7,6-47.09-7-3.53-21.61,2.59-27.32,11.51-5.26,8.16-8.8,32.24-5.92,40.27,2.64,7.32,23-.62,27.24-4.69Z"/><path class="cls-7" d="M311.54,962.22c13.59-2.41,16-20.8,9.21-23.87-7.91-2.15-32.71-2.51-40.64,0-3.89,1.18-12.24,13.06-10.15,15.82s28.39,10.41,41.58,8.08Z"/><path class="cls-7" d="M248.08,914.62c10.06-2.45,12.25-24.9,3.06-31.18-11.79-5.58-33.95-6-38.65-3.59-6.71,3.41-4.8,20.71-3.23,24.87,4,10.56,34.83,10.88,38.82,9.9Z"/><path class="cls-7" d="M176.38,849.28c7.56-3.62,4.48-34.29-4.17-41.57-10.3-6.06-27.1-5.65-32.64-1-3.91,3.35-2.3,18.72.57,28.31,2.66,8.9,5.12,10.45,8.56,11.8,11.15,4.37,23.64,4.36,27.68,2.43Z"/><path class="cls-7" d="M109.45,776.43c4.39-4.76,3.21-38.41-3-44.41-7.78-4.48-19.11.19-22.64,7.05-2.63,5.13-1.83,21.55,1.66,33.81,2.15,7.59,3.41,8.16,6.71,8.64,3.74.56,13.87-1.42,17.27-5.09Z"/><path class="cls-11" d="M448.76,383.3c1.37-.06,10.11-2.5,10.19-3.17l-.18-.17c-2.2-1.44-9-4.73-12.89-4.57-6.18.26-11,4.48-10.55,5.53.54,1.23,10.27,2.5,13.43,2.38Z"/><path class="cls-11" d="M96.27,613.48c1.08-1.56,13.59-25.27.37-11-5.84,6.33-7.53,11.28-7.53,11.28-.2.49.49,6.14,1,6.35a84.4,84.4,0,0,0,6.17-6.63Z"/><path class="cls-11" d="M370.56,385.59c2-.51,11.47-5.33,11.86-6.09l-.1-.12c-2.4-1.18-9.91-1.74-14.51-.47-6,1.66-9,5.63-9.64,7.39.61.85,10.5-.26,12.39-.71Z"/><path class="cls-11" d="M607,736.75a42.9,42.9,0,0,0,5.86-13.86c.42-1.2,1.7-5.54.5-5.11-1.22.94-8.67,9-9.6,10.73-1.45,2.61-4.26,12.36-3.49,12.87,1.55-.46,5.91-3.44,6.73-4.63Z"/><path class="cls-11" d="M213.16,474c2-1.41,12.25-14.25,11.55-15.2-2.32-.49-11.07,3.24-16.75,8.38-5.5,4.94-8,11.31-7.37,12.39,2.09.56,10.8-4.31,12.57-5.57Z"/><path class="cls-11" d="M488.34,873.67c1.46-1.17,13-13.67,11.52-15l-.32.1c-.1,0-12.14,6.51-14.63,8.72-1.93,1.66-6.46,8.77-6.46,9.77,0,0,2.61,2.32,9.89-3.59Z"/><path class="cls-11" d="M67.81,701.65c.74-1.74,2.12-15.71,1.09-17-1.27-.43-5.86,1.24-7.14,6.67C60.42,697.13,63,705.83,63.65,707s4.14-5.29,4.16-5.38Z"/><path class="cls-11" d="M651.18,579.86a43.23,43.23,0,0,0-1.95-14.37c-1-3.7-1.81-5.08-2.06-5.3l-.09.1s-1.05,10.22-1,11.83c.06,1.79,1,11.59,1.81,12.18,1-.54,3.17-3.39,3.3-4.44Z"/><path class="cls-11" d="M628.59,567.51c.48-3.79-2.47-13.82-3.8-14.15-.87.34-4.83,6-5.12,8.29-.47,4,.93,13.21,2.41,14.18s5.83-3.26,6.51-8.32Z"/><path class="cls-11" d="M581.87,532.05c1.22-2.61-.42-13-2.26-14.08-1.71-.4-8.36,1.65-9.43,3.89-1.46,3-1,11.3.84,13.88s9,.21,10.85-3.69Z"/><path class="cls-11" d="M526.48,479.8c1.81-1.46,2.95-10.53.93-12.08-2.32-1.12-10.39-2-12.77-.27s-3.85,7.72-2.63,11.12c1.54,4.29,12.19,3.06,14.47,1.23Z"/><path class="cls-11" d="M477,424.53c1.5-.42,7.34-6.42,5.77-7.81-2.38-1.41-10.77-3.6-14-2.76-3.92,1-7.25,5.79-6.48,8.11s11.3,3.43,14.7,2.46Z"/><path class="cls-11" d="M633.56,654.36c1.61-4.51-.55-14.13-2.15-14.24-1.13.47-6.89,6.35-8,9.83-.8,2.52-1.12,13.41.42,14.13s7.71-4.1,9.71-9.72Z"/><path class="cls-11" d="M580.4,621.16c2-3.44.73-15.07-1.84-16.36-3.06-.56-10.77,3.22-11.64,4.93-2.11,4.06-1.22,14.2.49,16.55,2,2.82,10.59-1.1,13-5.12Z"/><path class="cls-11" d="M511.55,562.12c2.31-2.28,2.31-14.58-.75-16.81-4.18-1.87-13.4-.82-14.94.79-2.85,3-2.72,12.23-1,16.06,2.21,5.05,14,2.61,16.73,0Z"/><path class="cls-11" d="M440.9,489.65c2.73-1.48,5.28-12.47,2.66-14.72-4.06-2.28-13.35-2.41-15.48-1.12-3.81,2.33-5.65,10-4.72,13.43,1.34,4.92,15.1,3.74,17.54,2.41Z"/><path class="cls-11" d="M388,424c2.49-.84,9.07-9,7.33-10.7-3.33-2-11.79-2.31-14.32-1.3-5.44,2.18-9.08,8.27-8.63,10.48.56,2.69,12.65,2.51,15.62,1.52Z"/><path class="cls-11" d="M569.61,715.33c2.92-3.88,3.27-15,.5-16-3.25-.22-12.15,4.26-13.56,6.41-2.37,3.67-2.57,14.41-1.19,16.35,1.76,2.44,11-2.38,14.25-6.74Z"/><path class="cls-11" d="M498.87,661.7c3-2.9,3.19-16.19-.57-18.6-4.4-1.62-14.71.22-16.66,2.46-2.64,3.06-2.54,13.94-.87,17.66,2.36,5.33,15.38,1.07,18.1-1.52Z"/><path class="cls-11" d="M415.52,583.36c3.23-2.2,4.13-16.29.32-19.37-4.71-2.51-15.15-2.12-17.66,0-3.18,2.76-4.27,12.87-2.56,17.38,2.2,5.79,16.86,4.05,19.9,2Z"/><path class="cls-11" d="M341.87,500.78c3.2-1.69,7.08-14.12,4.35-16.66-4.33-2.46-13.61-1.68-16.14.14-4.12,2.94-7.21,12.22-5.9,15.61s14.34,2.71,17.69.91Z"/><path class="cls-11" d="M295.53,434.4c2.83-1.36,10.32-11.25,9-12.71-2.9-1.45-10.88-1.42-13.77.35-6.42,3.93-10.16,12.42-9.44,13.87s11.12,0,14.22-1.51Z"/><path class="cls-11" d="M541.46,802.62c4.48-4.77,6.8-13.28,4.42-13.67-3,.38-13,5.65-14.79,7.82-2.89,3.44-5.93,13.38-3.88,14.4,1.82.91,9.07-3.07,14.25-8.55Z"/><path class="cls-11" d="M479.14,763.76c3.76-3.24,5.36-15.73,1.42-17.86-4.61-1.25-15.64,1.51-17.83,3.9-2.66,2.94-4.63,13.91-1.76,17.66,2.43,3.22,13.35.45,18.17-3.7Z"/><path class="cls-11" d="M394.52,691.26c3.77-2.71,4.62-17.36.22-20.59-5.19-2.46-16.31-2-19.47.85-1.39,1.22-4.82,10.19-1.89,18,3.16,8.58,18.62,3.54,21.14,1.7Z"/><path class="cls-11" d="M307.52,602.15c3.5-2.24,5.61-17.45,1.91-20.64-4.79-2.58-14.84-1.6-17.79,1-1.95,1.74-6.21,11.44-3.83,18.1,2.24,6.23,16,3.93,19.71,1.54Z"/><path class="cls-11" d="M243.29,521.9c3.15-2,8.2-15.68,5.92-17.92-3.72-1.91-11.91.42-14.74,2.9-3.56,3.13-8.34,12.21-7.09,16.33,1.06,3.56,12,1.29,15.91-1.31Z"/><path class="cls-11" d="M448.59,853.69c4.28-3.15,7.17-13.58,4.07-14.72-3-.2-14.85,2-17.82,4.65-2.54,2.27-4.5,11.88-2.89,14s12.14-.68,16.64-4Z"/><path class="cls-11" d="M373.19,796.62c3.67-2.39,5.32-16.3,1.23-18.77-3.14-1-16-1.46-19.53,1.66-2.4,2.15-3.05,12.47-1,16.72,2.37,5,16.16,2.45,19.34.39Z"/><path class="cls-11" d="M284.35,713.09c3.81-2.38,3.92-18.65.13-21.53-3.41-1.49-15-2.56-18.67.91-2.6,2.48-3.3,13.09-1.19,18,2.41,5.63,16.72,4.47,19.73,2.6Z"/><path class="cls-11" d="M205.89,625.07c3.58-2.52,5.13-18.55,2.78-20.52-3.06-1.29-12.2-.81-15.5,2.79-2.95,3.2-5,13.94-3.35,17.68,1.54,3.51,13.13,2.1,16.07.05Z"/><path class="cls-11" d="M156.49,554.16c2.28-1.94,8.3-16.35,6.81-17.74-2-.42-9.19.52-12.72,4.6-4.53,5.27-6.51,15.22-5.72,16.78s9.23-1.58,11.63-3.64Z"/><path class="cls-11" d="M402.72,924.13c5.41-2.83,9.16-8.84,6.65-9.41-3,0-13.7,2.59-16.31,4.16-2.08,1.25-5.83,7.69-5.11,8.75s8.54-.21,14.77-3.5Z"/><path class="cls-11" d="M343.53,886.93c4-1.86,6.49-11.94,2.57-14.17-4.05-1.34-14.94-.85-18,1.25-2.07,1.39-3.32,9.35-1.92,12.3,1.6,3.41,14,2.24,17.36.62Z"/><path class="cls-11" d="M263.65,818.53c3.66-1.88,4.21-14.88-.21-18.19-4.57-2.31-14.84-2.86-18-.3-1.87,1.5-1.88,10.08-.07,14.79,2.66,6.86,17,4.36,18.31,3.7Z"/><path class="cls-11" d="M181.68,734.38c2.88-1.9,3.41-16.75-.22-19.94-4.72-2.64-12.68-1-14.43.9-2.77,3-2.33,12.18-1.18,16,2.18,7.35,15.18,3.48,15.83,3Z"/><path class="cls-11" d="M120.94,658.7c2.24-2.19,4.53-16.69,2.4-18.85-2.81-1.39-8.64,1-10.92,4.62-2.11,3.27-3.54,12.87-2.39,16.1,1,2.93,9.23-.25,10.91-1.87Z"/><path class="cls-11" d="M309,949c5.45-1,6.4-8.32,3.69-9.55-3.17-.85-13.09-1-16.25,0-1.56.48-4.91,5.24-4.07,6.33S303.73,949.94,309,949Z"/><path class="cls-11" d="M243.75,898.22c4-1,4.9-10,1.22-12.47-4.72-2.23-13.58-2.39-15.46-1.42-2.7,1.36-1.92,8.25-1.3,9.91,1.58,4.25,13.95,4.37,15.54,4Z"/><path class="cls-11" d="M171.45,830.47c3-1.43,1.81-13.71-1.67-16.61-4.1-2.43-10.84-2.27-13-.38-1.58,1.34-.93,7.49.22,11.31,1.08,3.56,2.07,4.18,3.44,4.72,4.43,1.76,9.43,1.75,11,1Z"/><path class="cls-11" d="M107.73,759c1.76-1.91,1.29-15.37-1.2-17.76-3.09-1.79-7.65.09-9,2.8-1.06,2.06-.74,8.63.66,13.54.84,3,1.37,3.26,2.69,3.46,1.5.21,5.54-.55,6.89-2Z"/><path class="cls-12" d="M456.68,429.46a8.59,8.59,0,1,0-12.15,0A8.61,8.61,0,0,0,456.68,429.46Z"/><path class="cls-12" d="M415.82,482.52a8.59,8.59,0,1,0-12.14,0A8.59,8.59,0,0,0,415.82,482.52Z"/><path class="cls-12" d="M325.9,484.21a8.6,8.6,0,1,0-12.15,0A8.6,8.6,0,0,0,325.9,484.21Z"/><path class="cls-12" d="M366.07,419.06a5.44,5.44,0,1,0-7.69,0A5.45,5.45,0,0,0,366.07,419.06Z"/><path class="cls-12" d="M223.3,507.75a5.43,5.43,0,1,0-7.7,0A5.44,5.44,0,0,0,223.3,507.75Z"/><path class="cls-12" d="M275.29,589.38a5.44,5.44,0,1,0-7.7,0A5.45,5.45,0,0,0,275.29,589.38Z"/><path class="cls-12" d="M383.09,565.78a5.43,5.43,0,1,0-7.69,0A5.43,5.43,0,0,0,383.09,565.78Z"/></svg>